Coordinates
version=1
nRows=8
nColumns=33
inDegrees=yes

Units are S.I. units (second, meters, Newtons, ...)
Angles are in degrees.

endheader
time	ground_thorax_rot_x	ground_thorax_rot_y	ground_thorax_rot_z	ground_thorax_tx	ground_thorax_ty	ground_thorax_tz	clav_prot_r	clav_elev_r	scapula_abduction_r	scapula_elevation_r	scapula_upward_rot_r	scapula_winging_r	shoulder_elv_r	plane_of_elev_r	axial_rot_r	elbow_flexion_r	pro_sup_r	wrist_flex_r	wrist_dev_r	clav_prot_l	clav_elev_l	scapula_abduction_l	scapula_elevation_l	scapula_upward_rot_l	scapula_winging_l	shoulder_elv_l	plane_of_elev_l	axial_rot_l	elbow_flexion_l	pro_sup_l	wrist_flex_l	wrist_dev_l
      8.01000000	     40.19023859	     11.57797577	     13.30279831	   -192.42677185	    826.79774662	      2.37871980	     15.26579570	     37.00241106	     40.08365126	     45.00000000	    -44.89492657	  -2244.85993698	  -1184.32255988	    141.95289775	    179.99999979	   2173.48609172	     52.69017006	     22.37833364	      7.84798702	      7.80375460	    -45.00000000	    -38.70707153	     45.00000000	    -44.62613769	   2254.41260981	  -3329.50755675	    133.68526150	   -179.99999979	    371.26961604	   -331.76687830	      7.23866324	    -21.98167413
      8.02000000	     40.23332780	     11.45681759	     13.14944985	   -194.53649226	    828.04285691	      2.41684382	     15.17869290	     36.97950486	     40.01682220	     45.00000000	    -45.00000000	  -2244.95815661	  -1184.21858731	    141.97730737	    179.99999979	   2173.53432134	     52.67834955	     22.41547170	      7.80930078	      7.81334918	    -45.00000000	    -38.72770758	     45.00000000	    -44.72822635	   2254.59060037	  -3329.39392346	    133.70903947	   -179.99999979	    371.30471927	   -332.10919602	      7.22493024	    -22.00584004
      8.03000000	     40.21669646	     11.31125346	     13.00840878	   -196.59863691	    829.24969858	      2.45559254	     15.00969207	     37.27541331	     39.85137138	     45.00000000	    -45.00000000	  -2244.94835429	  -1184.14809191	    142.10011703	    179.99999979	   2173.76168127	     52.66231585	     22.58219699	      7.87731930	      7.73781948	    -45.00000000	    -38.85488269	     45.00000000	    -44.48833709	   2254.70713946	  -3329.44241288	    133.98894335	   -179.99999979	    371.36865922	   -332.36256666	      7.18272477	    -22.02745774
      8.04000000	     40.28360113	     11.26506537	     12.92971684	   -198.59068602	    830.40673869	      2.49433718	     15.00024389	     36.92768398	     39.81242538	     45.00000000	    -45.00000000	  -2245.06842687	  -1184.08248109	    142.09023545	    179.99999979	   2173.55178336	     52.62177837	     22.49723262	      7.76478766	      7.86291862	    -45.00000000	    -38.64042546	     45.00000000	    -45.00000000	   2254.92406230	  -3329.19565855	    133.72863711	   -179.99999979	    371.30060135	   -332.58944584	      7.11559186	    -22.02450927
      8.05000000	     40.32616525	     11.09367879	     12.71091875	   -200.52885325	    831.52484751	      2.53326488	     14.89368525	     36.96856986	     39.71347586	     45.00000000	    -45.00000000	  -2245.12994868	  -1183.96048131	    142.12370218	    179.99999979	   2173.61801204	     52.59978567	     22.54996671	      7.74953790	      7.86912345	    -45.00000000	    -38.72831809	     45.00000000	    -45.00000000	   2255.06695815	  -3329.15252982	    133.78656509	   -179.99999979	    371.35595577	   -332.74713513	      7.11810084	    -22.07107968
      8.06000000	     40.36545796	     10.93776540	     12.48333249	   -202.40551037	    832.60143818	      2.57193620	     14.80394898	     36.98126738	     39.61092470	     45.00000000	    -45.00000000	  -2245.17788442	  -1183.87124635	    142.10903429	    179.99999979	   2173.64341735	     52.59072016	     22.59851002	      7.74122985	      7.87735689	    -45.00000000	    -38.72965039	     45.00000000	    -45.00000000	   2255.20929191	  -3329.07928368	    133.79235150	   -179.99999979	    371.34540869	   -332.84096383	      7.07405142	    -22.08914095
      8.07000000	     40.35719296	     10.85222547	     12.41513636	   -204.22141173	    833.63882869	      2.60946048	     14.69164671	     37.06331221	     39.49816742	     45.00000000	    -45.00000000	  -2245.19986877	  -1183.84277745	    142.22214233	    179.99999979	   2173.76657928	     52.58512243	     22.67108645	      7.72304783	      7.86759451	    -45.00000000	    -38.71026458	     45.00000000	    -45.00000000	   2255.35719446	  -3329.10667007	    133.91963408	   -179.99999979	    371.43889982	   -332.89556159	      6.99517089	    -22.11968615
      8.08000000	     40.38320781	     10.71009842	     12.17632588	   -205.96770908	    834.63397948	      2.64440934	     14.66264889	     36.89398379	     39.42444133	     45.00000000	    -45.00000000	  -2245.23662304	  -1183.75867115	    142.19313897	    179.99999979	   2173.66717352	     52.59345017	     22.63176905	      7.65243930	      7.94301815	    -45.00000000	    -38.68761840	     45.00000000	    -45.00000000	   2255.50473187	  -3328.98189554	    133.82849637	   -179.99999979	    371.36908713	   -332.86813479	      6.95224393	    -22.13260627
